<svg width="100%" viewBox="0 0 720 260" xmlns="http://www.w3.org/2000/svg" aria-label="MAU Growth Trend (10K)">
<text x="50" y="24" font-family="Inter, sans-serif" font-size="14" font-weight="600" fill="#172033">MAU Growth Trend (10K)</text>
<line x1="50" y1="210.0" x2="690" y2="210.0" stroke="#D8D2C4" stroke-width="0.5"/>
<text x="42" y="214.0" text-anchor="end" font-family="IBM Plex Mono, monospace" font-size="10" fill="#4C566A">0</text>
<line x1="50" y1="176.0" x2="690" y2="176.0" stroke="#D8D2C4" stroke-width="0.5"/>
<text x="42" y="180.0" text-anchor="end" font-family="IBM Plex Mono, monospace" font-size="10" fill="#4C566A">282</text>
<line x1="50" y1="142.0" x2="690" y2="142.0" stroke="#D8D2C4" stroke-width="0.5"/>
<text x="42" y="146.0" text-anchor="end" font-family="IBM Plex Mono, monospace" font-size="10" fill="#4C566A">563</text>
<line x1="50" y1="108.0" x2="690" y2="108.0" stroke="#D8D2C4" stroke-width="0.5"/>
<text x="42" y="112.0" text-anchor="end" font-family="IBM Plex Mono, monospace" font-size="10" fill="#4C566A">845</text>
<line x1="50" y1="74.0" x2="690" y2="74.0" stroke="#D8D2C4" stroke-width="0.5"/>
<text x="42" y="78.0" text-anchor="end" font-family="IBM Plex Mono, monospace" font-size="10" fill="#4C566A">1126</text>
<line x1="50" y1="40.0" x2="690" y2="40.0" stroke="#D8D2C4" stroke-width="0.5"/>
<text x="42" y="44.0" text-anchor="end" font-family="IBM Plex Mono, monospace" font-size="10" fill="#4C566A">1408</text>
<path d="M 50.0 210 L 50.0 107.3721590909091 L 178.0 98.92045454545455 L 306.0 91.67613636363636 L 434.0 79.60227272727272 L 562.0 67.5284090909091 L 690.0 55.45454545454547 L 690.0 210 Z" fill="#244C7A" opacity="0.08"/>
<path d="M 50.0 107.3721590909091 L 178.0 98.92045454545455 L 306.0 91.67613636363636 L 434.0 79.60227272727272 L 562.0 67.5284090909091 L 690.0 55.45454545454547" fill="none" stroke="#244C7A" stroke-width="2" stroke-linecap="round" stroke-linejoin="round"/>
<circle cx="50.0" cy="107.3721590909091" r="4" fill="#244C7A"/>
<circle cx="50.0" cy="107.3721590909091" r="2" fill="#FAF8F4"/>
<text x="50.0" y="97.3721590909091" text-anchor="middle" font-family="IBM Plex Mono, monospace" font-size="10" fill="#172033">850</text>
<text x="50.0" y="228" text-anchor="middle" font-family="Inter, sans-serif" font-size="11" fill="#4C566A">Oct</text>
<circle cx="178.0" cy="98.92045454545455" r="4" fill="#244C7A"/>
<circle cx="178.0" cy="98.92045454545455" r="2" fill="#FAF8F4"/>
<text x="178.0" y="88.92045454545455" text-anchor="middle" font-family="IBM Plex Mono, monospace" font-size="10" fill="#172033">920</text>
<text x="178.0" y="228" text-anchor="middle" font-family="Inter, sans-serif" font-size="11" fill="#4C566A">Nov</text>
<circle cx="306.0" cy="91.67613636363636" r="4" fill="#244C7A"/>
<circle cx="306.0" cy="91.67613636363636" r="2" fill="#FAF8F4"/>
<text x="306.0" y="81.67613636363636" text-anchor="middle" font-family="IBM Plex Mono, monospace" font-size="10" fill="#172033">980</text>
<text x="306.0" y="228" text-anchor="middle" font-family="Inter, sans-serif" font-size="11" fill="#4C566A">Dec</text>
<circle cx="434.0" cy="79.60227272727272" r="4" fill="#244C7A"/>
<circle cx="434.0" cy="79.60227272727272" r="2" fill="#FAF8F4"/>
<text x="434.0" y="69.60227272727272" text-anchor="middle" font-family="IBM Plex Mono, monospace" font-size="10" fill="#172033">1080</text>
<text x="434.0" y="228" text-anchor="middle" font-family="Inter, sans-serif" font-size="11" fill="#4C566A">Jan</text>
<circle cx="562.0" cy="67.5284090909091" r="4" fill="#244C7A"/>
<circle cx="562.0" cy="67.5284090909091" r="2" fill="#FAF8F4"/>
<text x="562.0" y="57.52840909090909" text-anchor="middle" font-family="IBM Plex Mono, monospace" font-size="10" fill="#172033">1180</text>
<text x="562.0" y="228" text-anchor="middle" font-family="Inter, sans-serif" font-size="11" fill="#4C566A">Feb</text>
<circle cx="690.0" cy="55.45454545454547" r="4" fill="#244C7A"/>
<circle cx="690.0" cy="55.45454545454547" r="2" fill="#FAF8F4"/>
<text x="690.0" y="45.45454545454547" text-anchor="middle" font-family="IBM Plex Mono, monospace" font-size="10" fill="#172033">1280</text>
<text x="690.0" y="228" text-anchor="middle" font-family="Inter, sans-serif" font-size="11" fill="#4C566A">Mar</text>
</svg>